<?xml version="1.0" encoding="UTF-8"?>
<svg id="Layer_1" data-name="Layer 1" xmlns="http://www.w3.org/2000/svg" viewBox="0 0 357.28 189.26">
  <defs>
    <style>
      .cls-1 {
        fill: #333;
        stroke: #333;
        stroke-miterlimit: 10;
      }
    </style>
  </defs>
  <path class="cls-1" d="m5.63,48.5l5.61-.31C17.46-1.81,49.48,9.15,102.21,8.03c0,0,1.19,59.11,1.21,76.68,0,0-57.79,7.49-56.6-36.43l-8.22-.28c.14,57.69.17,64.18.14,81.02h7.1c-5.54-38.27,50.73-38.94,57.19-37.74l.21,88.89c-55.11-2.05-86.37,9.44-94.62-42.14,0,0-4.65-.04-8.13-.28,0,0,.08,34.9.3,50.04,0,0,117.38-.77,153.53-1.1l-.16-4.1c-35.9-.72-17.42,2.64-22.91-135.06,92.25,131.58,115.57,136.43,67.25,134.5-.64-.03,0,5.51,0,5.51,67.17,1.28,81.56,1.68,155.04.56,0,0,.74-34.9.37-49.5l-6.82-.09c-9.11,52-41.98,42.06-98.54,41.28,0,0,1.31-67.82,1.31-86.77,0,0,59.61-8.93,57.77,38.25l5.56-.3c-.53-21.54-.71-57.2-.48-81.75l-5.88.19c.99,47.32-56.98,37.5-56.98,37.5.3-21.81-.27-55.57-.83-79.34,70.93-.76,100.54-2.12,103.29,41.28l4.44-.19c-.66-18.9-1.25-28.4-1.94-46.86,0,0-130.57-.32-154.54-.49l.11,4.69c20.61.69,22.43.59,22.43.59-.01,18.43-.7,93.92-.96,118.38,0,0-76.26-105.04-86.68-119.34,0,0,11.67.4,18.41.4,0,0,.03-.71.14-3.79,0,0-110.21,1.14-148.42-1.69,0,0,.33,33.87.32,47.96Z"/>
</svg>